<mxfile host="app.diagrams.net" modified="2024-02-07T02:23:54.974Z" agent="Mozilla/5.0 (Windows NT 10.0; Win64; x64) AppleWebKit/537.36 (KHTML, like Gecko) Chrome/121.0.0.0 Safari/537.36" version="23.1.1" etag="n5fxjr7o0jpUFKyvDa3Z" type="github">
  <diagram name="Page-1" id="cb4eNn0KbW2Ss1xDhHQX">
    <mxGraphModel>
      <root>
        <mxCell id="0" />
        <mxCell id="1" parent="0" />
      </root>
    </mxGraphModel>
  </diagram>
</mxfile>
